<svg xmlns="http://www.w3.org/2000/svg" id="Layer_1" viewBox="0 0 157.28 205.5" width="157.28" height="205.5"><defs><style>.cls-1{fill:#fff;}</style></defs><g><path class="cls-1" d="M48.56,178.77c-.18,2.29-.36,4.68-.49,7.02h-2.25l-.18-1.57c-.36-3.6-1.84-4.32-5.8-4.32-3.46,0-5.49,1.53-5.49,4,0,2.2,1.48,3.78,6.93,5.58,6.43,2.16,8.73,4,8.73,7.51,0,4.77-3.96,8.5-11.74,8.5-3.55,0-6.57-1.17-8.1-2.11,.14-2.25,.27-4.5,.36-6.75h2.25l.14,1.62c.31,3.46,2.74,4.41,7.51,4.41,4.32,0,6.03-1.57,6.03-3.87,0-2.43-1.44-3.92-8.01-6.03-5.62-1.71-7.74-3.92-7.74-6.97,0-4.54,3.96-8.14,10.12-8.14,3.73,0,6.16,.67,7.74,1.12Z"></path><path class="cls-1" d="M75.74,192.18c-2.25-.05-4.45-.05-6.79-.05-2.47,0-4.77,0-7.11,.05,0,9.81,.09,10.03,.99,10.12l3.19,.27v2.47h-12.42v-2.47l3.06-.36c1.12-.09,1.12-.45,1.12-9.81,0-11.25-.04-11.52-.99-11.61l-3.19-.32v-2.43h12.42v2.43l-3.06,.36c-1.12,.14-1.12,.58-1.12,9.09,2.34,.09,4.63,.09,7.11,.09,2.34,0,4.54,0,6.79-.09,0-8.82-.13-9.04-.99-9.13l-3.2-.32v-2.43h12.42v2.43l-3.06,.36c-1.12,.14-1.12,.58-1.12,9.85,0,11.25,.04,11.52,.99,11.61l3.19,.27v2.47h-12.42v-2.47l3.06-.36c1.12-.09,1.12-.45,1.12-9.81v-.22Z"></path><path class="cls-1" d="M91.13,180.79l-3.19-.32v-2.43h12.42v2.43l-3.06,.36c-1.12,.14-1.12,.58-1.12,9.85,0,11.25,.04,11.52,.99,11.61l3.19,.27v2.47h-12.42v-2.47l3.06-.36c1.12-.09,1.12-.45,1.12-9.81,0-11.25-.04-11.52-.99-11.61Z"></path><path class="cls-1" d="M117.95,205.05h-13.54v-2.47l3.33-.36c.68-.09,.77-.58,.77-10.62s-.04-10.71-1.03-10.8l-3.15-.32v-2.43h22c.22,2.88,.4,6.21,.67,9.4h-2.25l-.63-3.78c-.54-3.1-.67-3.1-11.65-3.1-.09,1.71-.09,4.81-.09,10.39,6.66,0,6.79-.14,7.15-1.8l.27-2.11h1.49c.22,3.46,.36,6.97,.58,10.44h-1.49l-.49-2.34c-.54-1.93-.85-1.89-7.51-1.89,.04,8.82,.14,9,1.21,9.09l4.36,.23v2.47Zm-5.35-26.14l.23-.67c-.09,.22-.14,.41-.23,.67Z"></path><path class="cls-1" d="M150.4,205.05h-14.94v-2.47l3.2-.45c2.16-.41,2.25-.5,2.25-10.08v-11.43c-6.43,0-6.79,.05-7.29,2.34l-1.44,7.02-2.07-.09c.27-3.96,.54-7.87,.81-11.83h23.71c.36,3.96,.72,7.87,1.08,11.83l-2.07,.09-1.62-6.97c-.54-2.34-.76-2.39-7.06-2.39v10.17c0,10.84,0,10.93,2.43,11.38l3.01,.41v2.47Z"></path></g><path class="cls-1" d="M144.14,107.45c-6.77,20.85-15.36,31.09-28.89,31.09-17.19,0-30.72-14.08-30.72-38.4,0-15.18,3.29-24.69,5.12-30.54,8.96,.73,18.29,1.1,27.61,1.65v6.22l-7.13,.73c-16.46,1.65-19.02,8.23-19.02,25.42,0,15.54,7.31,24.87,18.84,24.87,10.06,0,17.19-6.4,24.5-28.16,7.14-20.56,13.24-31.46,22.84-35.04v-27.87H0v60c4.69,.03,10.17,.04,16.6,.04h47.94c0-30.57-.18-31.66-9.95-33.47l-29.49-5.79,.36-5.79c15.38,1.27,30.75,2.53,46.13,3.98v91.72c-15.38,1.63-30.75,3.44-46.13,5.07l-.36-5.79,29.31-6.51c10.13-2.17,10.13-2.89,10.13-32.56H18.59c-7.29,0-13.42,0-18.59,.04v59.82H157.28V79.86c-4.4,4.88-8.44,13.39-13.14,27.59Z"></path><g><path class="cls-1" d="M21.91,27H6.97v-2.47l3.2-.45c2.16-.4,2.25-.5,2.25-10.08V2.56c-6.43,0-6.79,.04-7.29,2.34l-1.44,7.02-2.07-.09c.27-3.96,.54-7.87,.81-11.83H26.14c.36,3.96,.72,7.87,1.08,11.83l-2.07,.09-1.62-6.97c-.54-2.34-.76-2.39-7.06-2.39V12.73c0,10.84,0,10.93,2.43,11.38l3.01,.41v2.47Z"></path><path class="cls-1" d="M33.75,2.74l-3.19-.31V0h12.42V2.43l-3.06,.36c-1.12,.14-1.12,.58-1.12,9.85,0,11.25,.04,11.52,.99,11.61l3.19,.27v2.47h-12.42v-2.47l3.06-.36c1.12-.09,1.12-.45,1.12-9.81,0-11.25-.05-11.52-.99-11.61Z"></path><path class="cls-1" d="M55.17,24.48c8.59-.05,9.22-.81,9.63-2.93l1.21-6.75h2.39c-.5,4.27-.95,8.73-1.03,12.19h-20.29v-2.47l2.88-.27c1.12-.09,1.17-.58,1.17-9.9,0-11.2-.09-11.52-.99-11.61l-3.19-.31V0h12.96V2.43l-3.78,.36c-.85,.14-.95,.68-.95,9.85v11.83Z"></path><path class="cls-1" d="M87.61,27h-14.94v-2.47l3.2-.45c2.16-.4,2.25-.5,2.25-10.08V2.56c-6.43,0-6.79,.04-7.29,2.34l-1.44,7.02-2.07-.09c.27-3.96,.54-7.87,.81-11.83h23.71c.36,3.96,.72,7.87,1.08,11.83l-2.07,.09-1.62-6.97c-.54-2.34-.76-2.39-7.06-2.39V12.73c0,10.84,0,10.93,2.43,11.38l3.01,.41v2.47Z"></path></g><style>@media (prefers-color-scheme: light) { :root { filter: contrast(1) brightness(0.1); } }
@media (prefers-color-scheme: dark) { :root { filter: none; } }
</style></svg>